<?xml version="1.0" standalone="no"?>
<!DOCTYPE svg PUBLIC "-//W3C//DTD SVG 20010904//EN"
 "http://www.w3.org/TR/2001/REC-SVG-20010904/DTD/svg10.dtd">
<svg version="1.0" xmlns="http://www.w3.org/2000/svg"
 width="880.000000pt" height="880.000000pt" viewBox="0 0 880.000000 880.000000"
 preserveAspectRatio="xMidYMid meet">
<metadata>
Created by potrace 1.14, written by Peter Selinger 2001-2017
</metadata>
<g transform="translate(0.000000,880.000000) scale(0.100000,-0.100000)"
fill="#000000" stroke="none">
<path d="M4169 6965 c-2 -2 -76 -6 -164 -9 -88 -3 -169 -7 -180 -10 -11 -2
-49 -7 -85 -11 -36 -4 -72 -9 -80 -10 -8 -1 -40 -6 -70 -10 -30 -4 -64 -9 -75
-11 -26 -5 -95 -16 -121 -19 -11 -2 -45 -8 -75 -14 -30 -6 -65 -13 -79 -15
-135 -24 -368 -78 -660 -152 -234 -59 -526 -159 -785 -269 -161 -68 -457 -213
-463 -227 -2 -5 -8 -8 -14 -8 -26 0 -327 -203 -438 -295 -28 -23 -265 -260
-280 -280 -8 -11 -36 -47 -61 -80 -144 -187 -246 -422 -275 -630 -5 -40 -12
-120 -19 -229 -4 -50 -9 -94 -11 -98 -3 -4 -1 -8 5 -8 6 0 7 -11 2 -27 -5 -16
-5 -37 -1 -48 4 -11 4 -27 -1 -36 -5 -9 -6 -19 -3 -22 4 -3 8 -36 9 -74 2 -37
8 -83 14 -100 5 -18 7 -33 4 -33 -3 0 -1 -6 5 -12 6 -7 11 -17 12 -23 8 -38
60 -146 75 -157 6 -4 6 -8 2 -8 -16 0 80 -119 166 -203 106 -105 201 -169 356
-243 52 -24 122 -38 118 -23 -2 6 188 139 199 139 2 0 12 7 21 14 10 8 57 43
104 78 48 35 87 67 89 73 1 9 -101 48 -157 60 -12 3 -35 10 -50 17 -16 6 -32
12 -38 14 -15 4 -144 59 -195 83 -258 124 -444 299 -539 505 -13 28 -25 59
-27 70 -2 12 -7 35 -10 51 -12 57 -6 191 9 227 16 37 232 265 248 261 5 -2 9
4 9 12 0 8 3 15 8 15 4 0 26 17 48 38 71 64 94 82 94 75 0 -4 6 1 13 12 9 11
19 15 27 10 8 -5 11 -4 7 3 -4 5 15 26 42 45 37 27 51 33 60 24 9 -9 11 -8 7
3 -5 13 29 41 62 52 4 1 16 10 26 20 11 10 26 18 33 18 7 0 13 3 13 8 0 4 35
25 78 47 42 22 79 43 82 46 7 9 118 60 126 59 4 -1 10 2 13 7 3 4 29 18 56 31
28 13 58 27 67 33 10 5 25 9 33 9 8 0 15 3 15 8 0 6 35 21 80 33 8 2 17 6 20
9 14 15 121 51 131 44 7 -4 9 -3 5 4 -4 7 7 13 29 18 19 3 35 10 35 15 0 5 10
9 23 9 13 0 27 4 33 10 5 5 18 11 29 13 11 1 25 6 31 9 6 4 21 9 35 12 13 2
36 9 52 15 15 6 27 7 27 3 0 -4 4 -2 8 3 6 10 78 36 112 40 8 1 37 10 63 19
27 10 55 15 63 12 8 -3 13 -2 10 3 -4 6 62 29 139 47 6 2 19 5 30 8 50 13 112
28 130 31 11 2 45 10 77 19 31 8 68 17 82 20 14 3 30 7 36 11 5 3 10 0 10 -7
0 -9 3 -9 8 -2 7 11 44 23 97 30 36 5 70 12 70 14 0 3 51 11 87 13 20 1 34 6
30 11 -3 5 1 7 9 4 8 -3 23 -2 34 2 11 4 26 3 34 -4 11 -8 13 -8 8 1 -6 9 51
24 95 24 4 0 21 4 38 9 21 6 30 5 30 -3 0 -9 2 -9 8 -1 4 7 30 15 57 18 28 4
64 9 81 12 33 5 86 12 144 19 19 2 51 6 70 9 19 2 62 7 95 11 33 3 80 8 103
11 34 4 42 2 36 -8 -4 -7 1 -6 12 3 10 9 37 17 59 18 22 1 49 3 60 5 11 2 26
-2 34 -8 11 -8 13 -8 7 2 -5 8 0 12 16 13 13 0 46 2 73 5 28 2 96 6 152 8 56
2 105 6 110 8 12 6 134 11 310 12 84 1 153 4 153 8 0 4 11 3 25 -2 15 -6 26
-6 30 0 4 7 13 6 26 0 10 -6 19 -7 19 -3 0 10 93 8 109 -1 6 -4 11 -3 11 3 0
6 11 6 30 1 18 -5 32 -5 36 1 3 5 10 7 15 3 8 -5 179 -10 457 -13 48 -1 61 -4
56 -13 -6 -10 -4 -10 7 -2 14 11 25 11 154 -1 39 -4 77 -7 85 -7 8 0 22 -2 30
-5 8 -2 44 -7 80 -9 63 -4 115 -11 115 -14 0 -1 16 -3 35 -5 62 -5 299 -41
330 -50 8 -2 35 -7 60 -10 25 -3 59 -10 75 -15 17 -5 44 -11 60 -14 57 -11 90
-18 105 -23 8 -3 22 -7 30 -9 8 -1 26 -5 40 -8 14 -3 34 -8 45 -10 11 -3 47
-14 80 -26 33 -11 65 -22 70 -24 59 -16 215 -110 215 -129 0 -6 3 -8 6 -4 4 3
12 1 20 -6 7 -7 30 -25 51 -42 47 -37 158 -138 198 -180 75 -80 105 -115 105
-125 0 -5 4 -10 9 -10 12 0 77 -100 73 -112 -1 -5 1 -7 6 -4 15 9 142 -256
157 -329 1 -5 7 -30 14 -55 13 -44 17 -66 27 -160 8 -69 7 -209 -1 -270 -4
-30 -9 -66 -10 -80 -2 -14 -4 -26 -5 -27 -1 -2 -3 -11 -4 -20 -1 -10 -5 -28
-9 -40 -7 -20 -10 -30 -22 -85 -8 -38 -28 -88 -96 -238 -18 -41 -38 -78 -44
-82 -5 -4 -7 -8 -3 -8 4 0 -6 -23 -22 -50 -17 -28 -30 -57 -30 -65 0 -8 -5
-17 -10 -20 -6 -3 -19 -24 -29 -45 -32 -67 -144 -250 -153 -250 -4 0 -8 -5 -8
-11 0 -15 -83 -126 -181 -242 -234 -277 -495 -497 -874 -735 -27 -17 -54 -35
-60 -39 -5 -5 -34 -24 -64 -43 -44 -28 -50 -35 -35 -40 11 -4 44 -1 75 6 31 7
67 15 81 18 41 7 234 74 293 101 30 13 57 25 60 25 3 0 25 11 50 25 25 13 45
22 45 18 0 -3 8 0 18 9 20 17 74 42 85 40 4 -1 7 3 7 8 0 6 6 10 14 10 8 0 16
4 18 9 2 5 10 11 18 13 8 2 17 6 20 9 3 3 26 17 51 31 70 39 91 52 108 66 9 7
20 12 25 11 5 0 12 3 15 8 3 6 47 37 96 70 50 33 126 88 169 121 44 34 83 59
88 56 5 -3 7 -1 6 4 -3 8 47 62 57 62 7 0 98 84 184 170 46 47 88 84 93 82 5
-1 7 2 4 7 -3 5 12 28 34 51 22 23 40 46 40 50 0 5 8 15 19 22 10 7 21 23 25
36 4 12 11 22 16 22 5 0 19 17 31 38 13 20 26 39 29 42 4 3 24 34 44 70 21 36
43 68 48 71 5 3 9 9 9 13 -2 8 50 119 58 126 3 3 8 14 9 25 2 11 10 32 18 47
8 15 16 37 18 50 3 13 5 24 7 26 1 1 3 7 4 12 1 6 3 11 5 13 3 4 9 30 15 67 3
19 8 42 11 50 15 41 21 239 11 325 -10 80 -28 165 -48 222 -11 32 -20 59 -20
60 0 6 -42 101 -59 136 -11 20 -17 37 -14 37 2 0 -4 10 -16 22 -11 12 -20 25
-20 30 0 14 -92 141 -166 228 -77 91 -218 230 -299 295 -27 22 -52 42 -55 45
-3 3 -43 34 -90 69 -47 34 -93 69 -103 77 -9 8 -20 14 -23 14 -2 0 -10 5 -17
10 -27 23 -263 170 -273 170 -3 0 -18 8 -32 19 -27 19 -367 192 -376 192 -3 0
-45 18 -93 40 -159 74 -631 255 -728 279 -5 1 -14 4 -20 6 -13 4 -212 63 -250
74 -16 5 -41 12 -55 14 -14 3 -79 19 -145 36 -215 54 -660 135 -755 138 -8 0
-33 3 -55 6 -73 10 -188 16 -419 22 -126 3 -233 7 -236 9 -4 3 -9 3 -11 0z"/>
<path d="M5970 6084 c-41 -14 -84 -29 -95 -34 -20 -8 -170 -60 -190 -65 -5 -1
-17 -5 -25 -8 -8 -3 -73 -25 -145 -50 -817 -280 -901 -311 -1005 -378 -53 -33
-372 -209 -380 -209 -6 0 -10 -4 -10 -10 0 -5 -4 -10 -9 -10 -5 0 -56 -27
-114 -60 -57 -33 -109 -60 -115 -60 -6 0 -12 -4 -14 -8 -1 -5 -43 -30 -93 -57
-49 -26 -94 -51 -100 -55 -8 -6 -135 -78 -535 -302 -25 -14 -146 -83 -270
-153 -124 -70 -259 -146 -300 -168 -41 -22 -77 -43 -80 -46 -3 -3 -32 -20 -64
-37 l-59 -31 -261 90 c-144 49 -270 91 -281 94 -11 3 -30 9 -42 14 -158 64
-232 79 -253 50 -3 -4 -41 -32 -85 -62 -44 -30 -82 -56 -85 -59 -3 -3 -35 -27
-72 -55 -37 -27 -68 -53 -68 -57 0 -4 19 -24 42 -45 23 -21 57 -51 74 -68 18
-16 49 -43 70 -60 20 -16 52 -43 70 -60 18 -16 52 -46 75 -65 97 -82 128 -113
123 -121 -4 -8 -88 -64 -291 -195 -28 -19 -56 -34 -62 -34 -6 0 -11 -4 -11
-10 0 -9 -54 -41 -66 -39 -4 0 -10 -3 -13 -8 -10 -14 -101 -73 -114 -74 -7 0
-3 -4 9 -9 11 -4 37 -7 57 -6 20 2 41 0 48 -4 6 -5 24 -4 39 0 15 4 34 3 43
-2 12 -6 17 -5 17 3 0 8 4 8 15 -1 8 -7 15 -9 15 -4 0 5 24 8 52 6 74 -4 88
-5 128 -3 19 1 95 1 168 0 73 -1 135 1 138 4 3 3 17 1 31 -4 17 -6 30 -6 38 1
7 6 15 7 18 3 3 -5 27 -7 54 -5 62 3 62 3 100 -1 17 -2 29 1 27 5 -3 5 8 13
25 19 17 6 31 14 31 19 0 9 61 36 72 32 5 -1 7 4 5 11 -1 7 7 12 19 11 14 0
20 4 17 13 -3 7 2 13 11 13 9 0 16 3 16 8 0 4 17 16 38 27 20 11 46 28 56 38
11 9 26 17 33 17 8 0 16 6 19 14 5 14 61 41 77 37 5 -1 6 2 3 7 -3 5 14 19 37
32 23 13 44 26 47 29 11 13 150 101 159 101 5 0 11 3 13 8 4 9 136 92 148 92
4 0 10 7 14 15 3 8 12 15 21 15 8 0 15 4 15 9 0 5 10 13 23 17 12 4 33 16 47
26 40 31 131 88 141 88 5 0 9 5 9 10 0 6 7 10 15 10 8 0 15 5 15 10 0 6 7 10
15 10 8 0 15 4 15 9 0 5 10 13 22 17 12 3 28 13 36 20 7 8 19 11 25 7 7 -3 9
-3 5 2 -7 7 81 75 96 75 5 0 137 85 153 99 7 6 16 11 21 11 5 0 22 11 38 25
16 14 32 25 36 25 4 0 34 18 67 40 33 22 63 40 66 40 3 0 15 9 27 20 12 11 34
26 50 32 15 7 28 16 28 20 0 5 7 8 15 8 8 0 15 4 15 8 0 5 17 17 38 28 20 10
39 21 42 24 3 3 25 18 50 34 25 16 57 37 72 48 15 10 30 18 33 18 4 0 13 7 22
15 8 8 20 12 26 8 7 -3 9 -3 5 2 -7 7 53 53 75 58 6 1 23 12 37 25 13 12 30
22 37 22 7 0 13 5 13 10 0 6 7 10 15 10 8 0 15 5 15 10 0 6 6 10 13 10 7 0 23
9 35 20 12 11 24 20 27 20 4 0 26 14 50 30 24 17 48 30 54 30 6 0 11 5 11 11
0 6 7 9 15 5 9 -3 15 0 15 9 0 8 5 15 10 15 6 0 16 5 23 10 15 13 54 38 177
115 52 33 97 63 98 67 2 4 7 8 11 8 5 0 49 27 99 60 51 33 96 60 102 60 5 0
10 5 10 11 0 6 9 9 19 6 14 -3 18 -1 14 9 -3 8 1 14 11 14 9 0 16 4 16 9 0 5
10 13 23 17 12 4 24 10 27 14 10 13 150 100 150 92 0 -4 4 -2 8 4 8 12 98 74
107 74 3 0 11 5 18 10 28 24 178 120 187 120 5 0 10 4 10 8 0 5 18 17 40 27
22 10 40 21 40 25 0 4 14 13 30 20 17 7 30 16 30 21 0 5 5 9 11 9 6 0 32 15
57 32 26 18 49 34 51 35 2 2 2 5 0 7 -2 2 -38 -7 -79 -20z"/>
<path d="M3870 4505 c0 -7 -30 -11 -72 -11 -65 -1 -78 -4 -119 -32 -26 -18
-49 -32 -52 -32 -4 0 -26 -13 -50 -30 -25 -16 -50 -30 -56 -30 -6 0 -11 -3
-11 -8 0 -4 -13 -13 -29 -20 -16 -7 -39 -22 -52 -33 -12 -11 -29 -17 -36 -14
-8 2 -11 0 -8 -5 3 -5 -11 -18 -32 -30 -21 -11 -69 -39 -108 -63 -59 -38 -72
-51 -89 -93 -11 -27 -24 -50 -28 -52 -4 -2 -8 -9 -8 -16 0 -7 -6 -26 -14 -42
-25 -50 -76 -164 -76 -169 0 -2 -18 -41 -39 -85 -22 -44 -37 -80 -34 -80 3 0
-2 -9 -12 -20 -10 -11 -15 -20 -11 -20 3 0 -1 -14 -9 -31 -9 -17 -15 -33 -12
-35 3 -3 311 -7 380 -5 9 1 17 6 17 12 0 5 13 37 30 70 16 33 29 62 29 65 0 2
8 24 19 47 11 23 29 64 41 90 33 73 60 96 107 90 21 -2 52 -6 67 -7 15 -2 30
-6 33 -8 9 -10 -48 -128 -59 -121 -6 3 -7 1 -3 -6 8 -12 3 -24 -64 -161 l-36
-75 180 2 c100 1 187 2 194 2 7 1 22 23 34 51 11 28 25 47 31 43 5 -3 7 -1 4
4 -4 6 1 28 10 49 9 22 17 41 18 44 8 27 49 106 58 112 7 4 9 8 5 8 -4 0 -2
13 3 30 6 17 16 27 22 23 5 -3 7 -1 3 5 -3 6 7 40 24 76 16 37 29 67 28 69 0
1 11 24 25 52 15 27 27 56 27 62 0 7 5 13 11 13 5 0 8 4 4 9 -3 5 -1 12 5 16
6 4 8 11 5 16 -4 5 -1 9 4 9 6 0 11 8 11 18 0 10 4 22 9 28 14 15 91 196 87
203 -2 3 -91 6 -198 6 -122 -1 -196 3 -200 10 -5 7 -8 7 -8 0z m-60 -230 c0
-6 -75 -171 -90 -197 -6 -10 -10 -24 -10 -32 0 -27 -38 -31 -232 -25 -10 0
-18 5 -18 11 0 6 3 9 6 5 3 -3 18 5 32 18 15 13 31 24 36 24 5 -1 12 4 15 9 3
6 38 34 76 62 39 28 77 57 86 64 8 7 30 21 47 32 18 10 32 22 32 26 0 4 5 8
10 8 6 0 10 -2 10 -5z"/>
<path d="M6249 4486 c-5 -6 -9 -13 -9 -17 0 -4 -18 -47 -40 -94 -22 -47 -40
-88 -40 -90 0 -1 -18 -41 -40 -88 -22 -46 -40 -89 -40 -96 0 -6 -4 -11 -10
-11 -5 0 -10 -6 -10 -14 0 -8 -16 -46 -35 -85 -19 -39 -35 -73 -35 -75 0 -3
-13 -34 -29 -68 -15 -35 -37 -83 -49 -108 -11 -25 -33 -75 -50 -112 l-30 -67
21 -7 c12 -4 100 -6 196 -5 161 1 203 8 199 29 -3 16 68 168 82 177 5 3 8 10
5 15 -3 5 -1 17 4 27 6 10 22 45 36 78 15 33 30 67 34 75 6 11 28 16 75 18 75
3 89 -9 66 -56 -8 -15 -14 -29 -15 -32 -4 -19 -70 -146 -79 -152 -6 -4 -7 -8
-2 -8 5 0 3 -7 -4 -15 -18 -22 -81 -148 -76 -152 6 -6 399 -11 414 -5 6 2 12
10 12 18 0 8 4 14 9 14 5 0 21 24 36 53 15 28 33 55 39 59 6 4 8 8 4 8 -4 0 3
21 14 47 12 26 31 79 43 118 30 99 20 122 -78 170 -32 16 -54 31 -50 35 5 3
31 12 58 19 28 7 69 22 93 34 47 23 142 112 142 133 0 7 6 19 13 26 13 14 41
72 35 74 -1 1 4 10 13 20 14 17 39 87 39 110 0 5 -91 8 -207 6 -236 -4 -210 6
-256 -107 -16 -38 -43 -99 -60 -135 -17 -36 -31 -67 -31 -70 -1 -3 -11 -20
-24 -37 -21 -30 -29 -33 -72 -33 -27 0 -52 5 -56 11 -8 14 16 89 29 89 6 0 8
3 5 6 -4 3 21 64 53 136 33 72 57 133 54 137 -10 10 -385 7 -396 -3z"/>
<path d="M3456 4393 c-6 -14 -5 -15 5 -6 7 7 10 15 7 18 -3 3 -9 -2 -12 -12z"/>
<path d="M4826 4015 c-9 -13 -16 -27 -16 -29 0 -3 -18 -43 -39 -88 -82 -173
-119 -256 -126 -279 -4 -13 -14 -32 -23 -41 -13 -16 -13 -18 1 -24 8 -3 48 -6
89 -7 l73 -2 35 40 c19 22 68 75 110 118 41 43 81 85 89 93 7 8 15 13 18 10 5
-4 -67 -168 -78 -176 -9 -8 -30 -73 -24 -78 4 -5 25 -5 125 1 37 3 41 8 79 97
11 25 31 71 45 103 14 32 26 60 26 62 0 2 11 28 24 57 78 171 79 166 -16 166
-62 0 -72 -6 -147 -77 -23 -22 -70 -65 -169 -155 l-23 -21 9 25 c5 14 30 66
55 117 33 67 42 95 34 101 -7 5 -40 10 -73 11 -55 1 -63 -2 -78 -24z"/>
<path d="M4224 4011 c-4 -9 -8 -18 -8 -21 -1 -3 -7 -14 -13 -25 -6 -11 -11
-22 -10 -25 0 -3 -12 -30 -27 -60 -15 -30 -27 -55 -26 -55 0 0 -9 -24 -21 -52
-12 -30 -26 -50 -32 -46 -6 3 -7 1 -3 -5 4 -7 -7 -41 -24 -78 -16 -36 -30 -72
-30 -80 0 -15 -13 -15 286 -17 l182 -2 12 35 c7 19 23 59 36 88 13 29 24 55
24 58 0 9 -24 30 -48 43 -32 17 -19 29 41 36 l52 7 35 84 c19 46 38 84 43 84
12 0 8 40 -5 41 -7 1 -113 3 -235 4 -197 2 -223 1 -229 -14z m246 -113 c0 -9
-9 -32 -20 -51 -20 -34 -22 -35 -83 -33 -64 1 -68 4 -50 46 19 44 42 55 121
55 23 0 32 -4 32 -17z m-120 -152 c0 6 10 10 23 8 12 -1 25 -3 29 -3 4 -1 3
-12 -4 -26 -6 -13 -15 -22 -21 -18 -6 3 -7 2 -4 -3 13 -21 -13 -37 -65 -39
-73 -4 -82 2 -60 45 13 28 25 36 52 40 19 3 38 1 42 -5 5 -7 8 -6 8 1z"/>
<path d="M5539 4003 c-15 -13 -31 -23 -37 -23 -6 0 -12 -4 -14 -8 -1 -4 -32
-29 -66 -56 -56 -43 -68 -59 -103 -133 -21 -46 -39 -88 -39 -94 0 -5 -4 -9 -8
-9 -5 0 -9 -6 -9 -12 0 -7 -8 -31 -18 -53 -32 -70 -36 -67 80 -67 19 0 41 1
48 1 13 1 67 108 67 131 0 5 4 10 10 10 6 0 9 6 8 13 -2 8 14 12 57 12 54 0
60 -2 57 -20 -2 -11 -9 -23 -15 -27 -7 -4 -9 -8 -5 -8 3 0 -4 -21 -18 -47
l-24 -48 23 -11 c14 -8 26 -9 34 -3 7 7 13 6 17 0 4 -6 16 -7 29 -3 12 4 34 7
49 6 15 0 26 2 23 5 -2 4 11 36 29 71 18 36 34 70 35 75 2 6 12 30 24 55 11
25 21 47 22 50 1 3 14 32 29 65 45 96 59 135 51 143 -3 4 -75 7 -157 8 -144 0
-153 -1 -179 -23z m116 -129 c-14 -33 -33 -65 -42 -71 -18 -14 -123 -18 -123
-5 0 4 16 18 36 32 19 14 42 31 50 38 8 7 14 10 14 5 0 -4 4 -2 8 5 10 15 74
63 79 58 2 -2 -8 -30 -22 -62z"/>
<path d="M4024 3233 c-21 -4 -27 -12 -57 -83 -8 -19 -32 -71 -52 -115 -20 -44
-43 -96 -52 -115 -13 -30 -41 -91 -98 -215 -8 -16 -27 -59 -43 -95 -16 -36
-42 -92 -58 -125 -15 -33 -28 -62 -29 -65 -1 -3 -5 -13 -10 -23 -4 -10 -6 -20
-3 -22 2 -2 76 -5 163 -6 105 -1 163 -6 167 -13 6 -8 8 -7 8 2 0 7 14 12 35
12 21 0 35 -5 35 -12 0 -9 2 -10 8 -2 7 11 332 15 332 4 0 -3 22 -4 48 -3 58
2 81 -9 64 -30 -7 -7 -9 -17 -5 -20 3 -4 1 -7 -5 -7 -7 0 -12 -9 -12 -20 0
-11 -5 -20 -11 -20 -5 0 -8 -4 -4 -10 5 -8 -10 -45 -25 -60 -18 -18 -6 -30 33
-31 23 0 52 -2 65 -3 12 -2 22 1 22 5 0 4 12 5 28 3 15 -3 47 -6 72 -7 l45 -2
40 80 c22 44 44 83 50 87 5 4 7 8 3 8 -7 0 6 35 56 142 27 58 34 94 16 83 -5
-3 -10 -3 -10 2 0 4 -22 8 -50 7 -27 0 -50 2 -50 6 0 4 6 20 14 36 8 16 35 74
59 129 84 188 103 225 112 218 4 -5 5 -2 0 5 -4 8 3 35 17 65 60 125 64 135
74 180 l7 28 -158 -3 c-89 -2 -160 -7 -164 -13 -4 -5 -33 -68 -66 -140 -32
-71 -76 -168 -97 -215 -22 -47 -55 -121 -75 -165 -20 -44 -43 -87 -50 -95 -10
-13 -41 -16 -182 -15 -94 1 -172 3 -175 6 -2 2 9 32 24 67 16 34 28 63 27 65
0 1 6 16 16 32 9 17 28 56 42 88 14 31 36 83 50 115 14 31 30 65 35 74 6 10
10 25 10 33 0 8 5 15 10 15 6 0 10 6 10 13 0 7 8 31 19 53 42 88 49 82 -105
83 -76 1 -140 3 -143 4 -3 2 -15 1 -27 0z"/>
<path d="M5372 3229 c-55 -4 -75 -10 -87 -25 -8 -10 -15 -23 -15 -28 0 -5 -17
-43 -37 -85 -20 -42 -37 -78 -38 -81 -1 -3 -9 -22 -18 -44 -9 -21 -17 -41 -17
-45 0 -4 -6 -13 -12 -19 -7 -7 -13 -16 -14 -20 -1 -8 -11 -32 -46 -112 -14
-30 -33 -74 -43 -97 -10 -24 -22 -43 -25 -43 -4 0 -7 -6 -7 -13 0 -7 -11 -38
-25 -68 -38 -81 -67 -146 -78 -174 -9 -23 -8 -24 38 -24 26 -1 54 -1 62 -1 12
-1 71 -1 163 0 60 0 98 7 95 18 -1 4 5 23 14 42 8 19 21 52 28 73 8 20 18 37
22 37 4 0 8 7 8 15 0 20 92 205 102 205 12 0 30 -41 35 -79 7 -52 9 -181 3
-181 -3 0 -4 -19 -4 -42 1 -24 -2 -53 -7 -65 -5 -15 -4 -23 7 -27 8 -3 14 -2
14 2 0 4 78 7 173 6 182 0 194 2 202 47 7 36 7 92 0 129 -4 19 -8 40 -9 47 -6
40 -57 114 -119 171 -31 30 -35 37 -22 44 8 5 20 6 27 2 6 -4 8 -3 5 2 -3 6 9
16 26 23 18 8 51 29 74 47 23 19 45 34 50 34 4 0 14 9 21 20 7 12 18 18 24 14
6 -4 8 -3 5 3 -6 10 26 43 43 43 5 0 13 6 17 14 4 8 28 24 52 37 35 18 47 20
62 11 15 -10 17 -9 13 3 -4 9 -1 21 5 29 6 7 12 45 14 84 l2 71 -117 3 c-65 2
-127 1 -138 -2 -12 -3 -33 -24 -48 -46 -69 -106 -105 -154 -115 -154 -6 0 -8
-3 -4 -6 6 -6 -34 -55 -85 -105 -21 -20 -37 -26 -82 -28 -64 -2 -67 3 -36 67
11 22 20 46 20 52 0 5 5 10 12 10 6 0 9 3 6 6 -6 5 8 41 60 154 8 19 17 38 19
42 5 9 -185 14 -275 7z"/>
<path d="M2603 3218 c-13 -6 -23 -16 -23 -22 0 -6 -9 -28 -20 -49 -11 -20 -20
-44 -20 -52 0 -8 -4 -15 -10 -15 -5 0 -10 -6 -10 -14 0 -8 -7 -27 -15 -43 -23
-44 -117 -248 -116 -251 1 -1 -6 -17 -16 -35 -9 -17 -18 -34 -18 -37 0 -3 -8
-21 -17 -40 -9 -19 -28 -60 -41 -90 -14 -30 -39 -86 -56 -124 -18 -38 -29 -71
-26 -75 4 -3 68 -6 142 -6 l135 -1 44 93 c24 50 44 97 44 102 0 6 5 11 11 11
5 0 8 4 5 8 -3 5 9 35 25 68 17 32 30 60 29 62 -1 4 33 76 39 82 4 3 7 10 8
15 1 6 9 26 17 45 l16 35 -2 -75 c-1 -41 -6 -80 -10 -87 -5 -6 -5 -14 0 -17 5
-3 7 -22 5 -43 -3 -21 -5 -66 -6 -100 -1 -35 -4 -63 -7 -63 -3 0 -5 -30 -4
-68 l0 -67 115 0 115 0 31 32 c16 18 28 33 26 33 -4 0 82 114 105 138 6 7 12
18 12 24 0 5 7 8 14 5 9 -4 13 -1 10 6 -5 13 51 93 93 134 13 12 23 26 23 30
0 5 14 23 30 41 17 18 30 35 30 38 0 6 91 124 96 124 3 0 3 -4 0 -9 -8 -13
-29 -65 -32 -80 -1 -8 -8 -17 -14 -21 -7 -4 -11 -9 -9 -11 5 -9 -13 -49 -22
-49 -6 0 -7 -5 -4 -10 4 -6 -7 -36 -24 -67 -17 -31 -31 -60 -31 -64 0 -20 -68
-148 -75 -142 -4 5 -5 2 -1 -4 4 -7 -5 -37 -19 -68 -14 -31 -25 -60 -25 -65 0
-11 6 -12 155 -12 l110 -1 27 49 c14 27 29 61 33 77 4 15 11 27 16 27 5 0 9 9
9 19 0 11 7 26 15 34 8 8 11 17 8 21 -4 3 -1 6 6 6 7 0 10 4 6 10 -6 10 13 50
30 62 6 4 7 8 3 8 -9 0 63 162 75 171 5 3 8 9 7 13 -1 4 8 30 21 59 13 29 24
54 24 57 2 6 39 89 60 135 8 16 21 49 29 73 l15 42 -218 0 -219 0 -15 -24 c-9
-13 -22 -29 -29 -37 -12 -13 -104 -124 -131 -159 -74 -96 -131 -159 -138 -154
-5 3 -6 -1 -4 -8 6 -14 -62 -93 -68 -80 -2 4 -2 30 -1 57 2 28 5 103 8 167 7
137 14 217 22 229 8 13 -376 10 -403 -3z"/>
<path d="M7353 2835 c0 -8 4 -12 9 -9 5 3 6 10 3 15 -9 13 -12 11 -12 -6z"/>
<path d="M1780 2790 c-26 -6 -36 -26 -65 -135 -7 -27 -16 -58 -20 -67 -5 -13
0 -19 19 -24 23 -5 126 -9 151 -4 25 4 117 1 122 -4 3 -3 12 -1 20 5 10 9 13
8 13 0 0 -7 5 -9 12 -5 7 5 22 8 33 8 11 0 26 -3 33 -8 6 -4 12 -3 12 2 0 9
42 8 57 -1 5 -3 9 2 10 12 1 10 13 56 27 103 42 136 60 123 -186 124 -117 0
-224 -3 -238 -6z"/>
<path d="M6870 2640 c0 -5 5 -10 11 -10 5 0 7 5 4 10 -3 6 -8 10 -11 10 -2 0
-4 -4 -4 -10z"/>
</g>
</svg>
