<svg width="110" height="66" viewBox="0 0 110 66" fill="none" xmlns="http://www.w3.org/2000/svg"><g filter="url(#filter0_d_12_700)"><path fill-rule="evenodd" clip-rule="evenodd" d="M48.877 1.08395C42.6336 1.60457 33.0559 3.67495 26.8142 5.85307C22.6663 7.30064 18.371 9.27154 15.3686 11.1052C9.08022 14.9455 4.93846 19.8442 3.60674 25.0161C2.99817 27.3795 2.79052 32.9634 3.24809 34.6619C3.95344 37.2804 5.52982 39.48 8.04908 41.3611C9.27107 42.2736 11.7748 43.5612 12.0912 43.4398C12.6202 43.2369 17.858 39.6066 17.7531 39.5156C17.6878 39.4588 17.1219 39.2646 16.4957 39.0839C15.8695 38.9033 14.6556 38.474 13.7982 38.13C9.25926 36.309 6.42816 33.8374 5.17984 30.6055C4.73907 29.4645 4.69167 27.3059 5.09103 26.5577C5.48982 25.8104 8.61496 22.7776 10.2392 21.5617C14.271 18.5433 19.2629 16.0725 25.6044 13.9561C34.9664 10.8318 45.8348 8.96995 58.4696 8.32622C62.5802 8.11687 71.0803 8.23457 74.5637 8.54925C81.194 9.14814 88.451 10.5877 90.8103 11.772C93.0185 12.8804 96.4823 16.0067 98.0902 18.3424C101.18 22.8304 101.847 27.5538 100.155 32.9623C99.7092 34.3868 97.5704 38.6749 96.2625 40.7657C92.8663 46.1949 88.3168 50.5075 81.7835 54.4907C80.7445 55.124 79.9439 55.6909 80.0044 55.7503C80.1731 55.9161 82.1 55.5344 83.5491 55.048C89.5576 53.0322 97.1147 48.0056 101.267 43.2634C106.73 37.0242 108.217 31.0677 105.811 25.0599C103.375 18.975 96.0813 12.8898 85.7151 8.29292C77.3942 4.60319 68.6323 2.19279 60.2602 1.29032C57.8364 1.02901 51.0181 0.905478 48.877 1.08395ZM66.9262 14.5986C62.1775 16.2317 58.1427 17.6468 57.9598 17.7431C57.7769 17.8393 51.325 21.4729 43.6223 25.8179L29.6174 33.7179L28.7495 33.4277C28.2721 33.268 26.0187 32.5003 23.742 31.7216L19.6025 30.3058L17.4086 31.8551C16.2019 32.7074 15.2148 33.4707 15.2148 33.5514C15.2148 33.632 16.5243 34.7974 18.125 36.1411C19.7256 37.4847 21.0385 38.6397 21.0426 38.7076C21.0466 38.7755 19.4667 39.8358 17.5315 41.0638C15.5964 42.2917 13.9686 43.3409 13.9141 43.3953C13.8597 43.4497 16.6295 43.4942 20.069 43.4942H26.3227L34.2895 38.3519C47.2682 29.9748 69.7956 15.4962 72.7846 13.6107C75.6256 11.8187 75.9338 11.6079 75.6952 11.6214C75.6209 11.6256 71.6748 12.9653 66.9262 14.5986ZM43.192 33.952L39.7277 36.0803L38.0388 39.8119C37.1098 41.8643 36.3498 43.5645 36.3498 43.5901C36.3498 43.6156 37.4545 43.635 38.8049 43.633L41.26 43.6293L42.3128 41.2846C43.4945 38.6528 43.315 38.8075 44.9279 39.0287L45.5757 39.1175L45.3181 39.7047C45.1763 40.0276 44.7041 41.0445 44.2686 41.9642L43.4767 43.6365L45.8553 43.6333L48.2338 43.63L50.4286 38.7587C51.6357 36.0794 52.835 33.4231 53.0936 32.8555L53.5639 31.8237H50.1101H46.6565L43.192 33.952ZM77.8435 32.5709C77.6601 32.9818 76.5044 35.5277 75.2753 38.2282C74.0463 40.9288 73.0077 43.2506 72.9672 43.3875C72.8992 43.6179 73.0788 43.6365 75.3754 43.6365H77.8569L79.0392 41.0036L80.2216 38.3706H81.1286C81.8569 38.3706 82.0357 38.4145 82.0357 38.5934C82.0357 38.9024 81.2022 40.6756 80.3285 42.2257C79.9263 42.939 79.6237 43.5493 79.6562 43.5816C79.6885 43.6139 80.8508 43.6556 82.2392 43.6741L84.7636 43.7077L85.1073 43.2807C85.9927 42.181 87.0914 39.4283 86.9919 38.5594C86.9535 38.2235 86.7853 38.0727 85.9743 37.6464L85.0028 37.1359L85.9414 36.9042C87.012 36.6401 87.9278 36.0661 88.5677 35.2581C89.034 34.6694 89.9279 32.8763 90.0865 32.2119L90.1805 31.8173L87.5177 31.8561L84.8548 31.8948L84.2514 33.3892C83.5511 35.1233 82.9202 36.4045 82.6931 36.5538C82.5025 36.6789 81.8 36.691 81.3736 36.5766C81.079 36.4976 81.1026 36.4173 81.9911 34.4793C82.4994 33.371 82.9719 32.3201 83.0412 32.1439L83.1671 31.8237H80.6722H78.1773L77.8435 32.5709ZM47.4624 34.9904C47.3178 35.323 46.9714 36.0917 46.6929 36.6983L46.1864 37.8013H44.6534C43.3177 37.8013 43.1472 37.7749 43.3288 37.5963C43.5157 37.4126 47.6208 34.3969 47.695 34.3888C47.7118 34.3869 47.6072 34.6578 47.4624 34.9904ZM59.1566 40.3275C58.442 41.8736 57.8146 43.2506 57.7625 43.3875C57.6776 43.6109 57.7773 43.6365 58.7312 43.6365H59.7945L61.3979 41.9234C62.2797 40.9811 63.0281 40.237 63.061 40.2699C63.0937 40.3027 62.7685 41.0763 62.338 41.989L61.5553 43.6482L62.6269 43.6068L63.6984 43.5654L64.9681 40.6785C65.6665 39.0907 66.2378 37.7297 66.2378 37.6541C66.2378 37.5785 65.8439 37.5166 65.3625 37.5166H64.4872L63.0497 38.8247C62.2591 39.5442 61.4658 40.262 61.2869 40.4199L60.9615 40.7069L61.1964 40.1436C61.3256 39.8338 61.5872 39.272 61.7776 38.8955C62.5063 37.4549 62.5223 37.5166 61.422 37.5166H60.456L59.1566 40.3275ZM51.6926 40.4018C51.0117 41.9069 50.4124 43.2506 50.3609 43.3875C50.2733 43.6197 50.4672 43.6364 53.2355 43.6348L56.2039 43.633L56.5891 42.6741C56.8009 42.1467 57.0151 41.605 57.0651 41.4702C57.1333 41.2873 57.0284 41.1645 56.6507 40.9843C56.3725 40.8517 56.1743 40.6957 56.2102 40.6376C56.2461 40.5796 56.5886 40.4891 56.9715 40.4364L57.6677 40.3406L58.1956 39.1777C58.486 38.5381 58.756 37.9348 58.7955 37.8369C58.8516 37.6978 58.2181 37.6597 55.8989 37.6621L52.9305 37.6652L51.6926 40.4018ZM68.2785 38.6724L66.9748 39.6673L66.1628 41.4701C65.7161 42.4615 65.3192 43.3546 65.2808 43.4546C65.2281 43.5921 65.4666 43.6365 66.2581 43.6364L67.3052 43.6362L67.7851 42.569L68.2649 41.5017H69.0269C69.7779 41.5017 69.7869 41.5067 69.6554 41.8527C69.5819 42.0456 69.3914 42.4594 69.232 42.7721C69.0724 43.0847 68.9419 43.41 68.9419 43.4948C68.9419 43.595 69.2973 43.6344 69.9575 43.6072L70.973 43.5654L72.2085 40.854C72.8881 39.3627 73.4859 38.0338 73.5368 37.9008C73.6216 37.68 73.4538 37.6598 71.6061 37.6682L69.5824 37.6775L68.2785 38.6724ZM70.8836 39.1178C70.2168 40.684 70.2541 40.6477 69.3141 40.6477C68.7882 40.6477 68.5101 40.5971 68.5932 40.5164C68.7858 40.3294 70.9835 38.6552 71.0365 38.6552C71.0608 38.6552 70.9919 38.8633 70.8836 39.1178ZM55.8444 39.4475C55.5094 40.3291 55.4616 40.3631 54.5622 40.3631C54.0953 40.3631 53.7133 40.3285 53.7133 40.2862C53.7133 40.244 53.8427 39.9558 54.0008 39.6458C54.2871 39.0845 54.2918 39.0822 55.136 39.0822H55.9833L55.8444 39.4475ZM54.8519 41.644C54.562 42.2123 54.56 42.2133 53.7104 42.2133C53.2423 42.2133 52.8593 42.1834 52.8593 42.147C52.8593 42.1105 52.9672 41.8544 53.0992 41.5777C53.3364 41.0801 53.3487 41.0747 54.2407 41.0747H55.1424L54.8519 41.644ZM32.3447 47.9418C32.2499 48.118 31.134 50.5516 29.8649 53.3501L27.5572 58.4382H29.361H31.1647L32.6387 55.161C33.4494 53.3587 34.126 51.9017 34.1422 51.9232C34.1731 51.9645 33.9965 55.6395 33.8787 57.4063L33.8099 58.4382H35.2747H36.7394L39.7112 54.5426C41.3458 52.4 42.6983 50.6592 42.7167 50.674C42.735 50.6888 41.9826 52.3916 41.0444 54.4578C40.1062 56.5241 39.3386 58.267 39.3386 58.3307C39.3386 58.3946 40.1093 58.4289 41.0512 58.407L42.7638 58.367L45.0412 53.3145C46.2938 50.5357 47.3554 48.118 47.4002 47.9418L47.4819 47.6216H44.7799H42.0781L39.6973 50.5748C38.3879 52.1991 37.2745 53.5442 37.223 53.5642C37.1355 53.5979 37.2095 51.7542 37.4116 48.8669L37.4987 47.6216H35.0079C32.5709 47.6216 32.5134 47.6286 32.3447 47.9418ZM47.6204 52.9943L45.1877 58.367L50.6603 58.4043C54.3764 58.4295 56.1328 58.4897 56.1328 58.5915C56.1328 58.674 55.9086 59.2267 55.6347 59.8196C55.3607 60.4126 55.1365 60.9207 55.1365 60.9489C55.1365 60.9769 55.9274 61 56.8941 61H58.6516L59.7405 58.6006C60.3394 57.2808 60.8295 56.1631 60.8295 56.1166C60.8295 56.0702 60.4584 56.0131 60.0048 55.9899L59.1802 55.9475L60.9944 51.9625C61.9921 49.7707 62.8116 47.8956 62.8153 47.7957C62.8204 47.6545 62.3704 47.6226 60.8067 47.6533L58.7912 47.6928L57.0256 51.6067C56.0544 53.7593 55.2112 55.5702 55.1518 55.631C55.0923 55.6918 54.0419 55.7238 52.8174 55.7022L50.5911 55.6629L52.3658 51.7501C53.3417 49.598 54.1403 47.7887 54.1403 47.7295C54.1403 47.6701 53.2207 47.6216 52.0968 47.6216H50.0532L47.6204 52.9943ZM66.1155 47.8707C66.0002 48.0878 62.5073 55.7823 61.5932 57.8333L61.26 58.5805H63.4721H65.6841L66.0416 57.7621C67.3036 54.8731 67.8595 53.7415 68.0167 53.7415C68.3654 53.7415 68.5666 54.61 68.5515 56.0487C68.5434 56.8255 68.4942 57.7129 68.4422 58.0207L68.3476 58.5805H70.7629C73.5479 58.5805 73.3485 58.702 73.3519 57.0021C73.3545 55.8157 72.7826 54.5838 71.8473 53.7606L71.2128 53.202L72.1146 52.78C72.6286 52.5394 73.4103 51.9902 73.9323 51.5028C75.0819 50.4295 75.8608 49.8988 76.2864 49.8988C76.7384 49.8988 76.912 49.5062 76.912 48.4849V47.6216H75.2164H73.5207L73.063 48.3688C72.4429 49.3813 70.8584 51.4017 70.4726 51.672C70.2951 51.7962 69.8607 51.8913 69.4699 51.8913C68.8205 51.8913 68.7862 51.8727 68.8791 51.5711C68.9335 51.3949 69.06 51.0892 69.1605 50.8915C69.2608 50.6939 69.6333 49.8773 69.9883 49.0769L70.6336 47.6216H68.4406C66.4975 47.6216 66.2328 47.6499 66.1155 47.8707ZM21.9073 53.2078C21.8748 53.3057 21.7126 53.866 21.5468 54.4531C21.3808 55.0402 21.2126 55.634 21.1727 55.7725C21.1047 56.0087 21.2887 56.0219 24.1281 55.9859L27.156 55.9475L27.5512 54.5954C27.7687 53.8518 27.9479 53.1954 27.9496 53.1366C27.9513 53.0779 26.6058 53.0299 24.9595 53.0299C22.6912 53.0299 21.952 53.073 21.9073 53.2078Z" fill="#456B92"></path></g><defs><filter id="filter0_d_12_700" x="0" y="0" width="109.924" height="66" filterUnits="userSpaceOnUse" color-interpolation-filters="sRGB"><feFlood flood-opacity="0" result="BackgroundImageFix"></feFlood><feColorMatrix in="SourceAlpha" type="matrix" values="0 0 0 0 0 0 0 0 0 0 0 0 0 0 0 0 0 0 127 0" result="hardAlpha"></feColorMatrix><feOffset dy="2"></feOffset><feGaussianBlur stdDeviation="1.5"></feGaussianBlur><feComposite in2="hardAlpha" operator="out"></feComposite><feColorMatrix type="matrix" values="0 0 0 0 0 0 0 0 0 0 0 0 0 0 0 0 0 0 0.1 0"></feColorMatrix><feBlend mode="normal" in2="BackgroundImageFix" result="effect1_dropShadow_12_700"></feBlend><feBlend mode="normal" in="SourceGraphic" in2="effect1_dropShadow_12_700" result="shape"></feBlend></filter></defs></svg>